<svg width="12" height="15" viewBox="0 0 12 15" fill="none" xmlns="http://www.w3.org/2000/svg">
<path fill-rule="evenodd" clip-rule="evenodd" d="M3.3335 8.50065C3.3335 8.13246 3.63197 7.83398 4.00016 7.83398H8.00016C8.36835 7.83398 8.66683 8.13246 8.66683 8.50065C8.66683 8.86884 8.36835 9.16732 8.00016 9.16732H4.00016C3.63197 9.16732 3.3335 8.86884 3.3335 8.50065Z" fill="#424551"/>
<path fill-rule="evenodd" clip-rule="evenodd" d="M3.3335 11.0007C3.3335 10.6325 3.63197 10.334 4.00016 10.334H6.00016C6.36835 10.334 6.66683 10.6325 6.66683 11.0007C6.66683 11.3688 6.36835 11.6673 6.00016 11.6673H4.00016C3.63197 11.6673 3.3335 11.3688 3.3335 11.0007Z" fill="#424551"/>
<path fill-rule="evenodd" clip-rule="evenodd" d="M4.02877 0.529247C4.1538 0.404222 4.32337 0.333984 4.50018 0.333984H9.00018C10.4729 0.333984 11.6668 1.52789 11.6668 3.00065L11.6668 12.0007C11.6668 13.4734 10.4729 14.6673 9.00018 14.6673H3.00016C1.5274 14.6673 0.333492 13.4734 0.333496 12.0006L0.333513 4.50065C0.333513 4.32384 0.403751 4.15427 0.528775 4.02925L4.02877 0.529247ZM4.33349 2.11015V4.33398H2.10965L4.33349 2.11015ZM1.66684 5.66732L1.66683 12.0006C1.66683 12.737 2.26378 13.334 3.00016 13.334H9.00018C9.73656 13.334 10.3335 12.737 10.3335 12.0007L10.3335 3.00065C10.3335 2.26427 9.73656 1.66732 9.00018 1.66732H5.66682V5.00065C5.66682 5.36884 5.36835 5.66732 5.00016 5.66732H1.66684Z" fill="#424551"/>
</svg>
