<svg width="16" height="15" viewBox="0 0 16 15" fill="none" xmlns="http://www.w3.org/2000/svg">
<path d="M8.6665 3.83268C8.6665 3.46449 8.36803 3.16602 7.99984 3.16602C7.63165 3.16602 7.33317 3.46449 7.33317 3.83268V7.49935C7.33317 7.67616 7.40341 7.84573 7.52843 7.97075L9.52843 9.97075C9.78878 10.2311 10.2109 10.2311 10.4712 9.97075C10.7316 9.7104 10.7316 9.28829 10.4712 9.02794L8.6665 7.22321V3.83268Z" fill="#787A80"/>
<path fill-rule="evenodd" clip-rule="evenodd" d="M7.99984 0.166016C3.94975 0.166016 0.666504 3.44926 0.666504 7.49935C0.666504 11.5494 3.94975 14.8327 7.99984 14.8327C12.0499 14.8327 15.3332 11.5494 15.3332 7.49935C15.3332 3.44926 12.0499 0.166016 7.99984 0.166016ZM1.99984 7.49935C1.99984 4.18564 4.68613 1.49935 7.99984 1.49935C11.3135 1.49935 13.9998 4.18564 13.9998 7.49935C13.9998 10.8131 11.3135 13.4993 7.99984 13.4993C4.68613 13.4993 1.99984 10.8131 1.99984 7.49935Z" fill="#787A80"/>
</svg>
