<svg width="12" height="17" viewBox="0 0 12 17" fill="none" xmlns="http://www.w3.org/2000/svg">
<path fill-rule="evenodd" clip-rule="evenodd" d="M2.13333 4.76706C2.13333 2.63156 3.8645 0.900391 6 0.900391C8.1355 0.900391 9.86667 2.63156 9.86667 4.76706V7.96706C9.86667 10.1026 8.1355 11.8337 6 11.8337C3.8645 11.8337 2.13333 10.1026 2.13333 7.96706V4.76706ZM6 2.23372C4.60088 2.23372 3.46667 3.36794 3.46667 4.76706V7.96706C3.46667 9.36618 4.60088 10.5004 6 10.5004C7.39912 10.5004 8.53333 9.36618 8.53333 7.96706V4.76706C8.53333 3.36794 7.39912 2.23372 6 2.23372Z" fill="#424551"/>
<path fill-rule="evenodd" clip-rule="evenodd" d="M0.666667 6.23372C1.03486 6.23372 1.33333 6.5322 1.33333 6.90039V7.96706C1.33333 10.5444 3.42267 12.6337 6 12.6337C8.57733 12.6337 10.6667 10.5444 10.6667 7.96706V6.90039C10.6667 6.5322 10.9651 6.23372 11.3333 6.23372C11.7015 6.23372 12 6.5322 12 6.90039V7.96706C12 11.2808 9.31371 13.9671 6 13.9671C2.68629 13.9671 0 11.2808 0 7.96706V6.90039C0 6.5322 0.298477 6.23372 0.666667 6.23372Z" fill="#424551"/>
<path fill-rule="evenodd" clip-rule="evenodd" d="M6 13.1671C6.36819 13.1671 6.66667 13.4655 6.66667 13.8337V14.7671H8.13333C8.50152 14.7671 8.8 15.0655 8.8 15.4337C8.8 15.8019 8.50152 16.1004 8.13333 16.1004H3.86667C3.49848 16.1004 3.2 15.8019 3.2 15.4337C3.2 15.0655 3.49848 14.7671 3.86667 14.7671H5.33333V13.8337C5.33333 13.4655 5.63181 13.1671 6 13.1671Z" fill="#424551"/>
</svg>
