<svg width="16" height="15" viewBox="0 0 16 15" fill="none" xmlns="http://www.w3.org/2000/svg">
<path fill-rule="evenodd" clip-rule="evenodd" d="M10.7117 6.44002C11.4099 6.97368 11.4099 8.02507 10.7117 8.55873L7.65841 10.8924C6.78101 11.5629 5.51541 10.9373 5.51541 9.833V5.16575C5.51541 4.06144 6.78101 3.43581 7.65841 4.1064L10.7117 6.44002ZM9.90204 7.49938L6.84875 5.16575L6.84875 9.833L9.90204 7.49938Z" fill="#424551"/>
<path fill-rule="evenodd" clip-rule="evenodd" d="M7.99984 1.49935C4.68613 1.49935 1.99984 4.18564 1.99984 7.49935C1.99984 10.8131 4.68613 13.4993 7.99984 13.4993C11.3135 13.4993 13.9998 10.8131 13.9998 7.49935C13.9998 4.18564 11.3135 1.49935 7.99984 1.49935ZM0.666504 7.49935C0.666504 3.44926 3.94975 0.166016 7.99984 0.166016C12.0499 0.166016 15.3332 3.44926 15.3332 7.49935C15.3332 11.5494 12.0499 14.8327 7.99984 14.8327C3.94975 14.8327 0.666504 11.5494 0.666504 7.49935Z" fill="#424551"/>
</svg>
